<?xml version="1.0" encoding="UTF-8"?>
<!DOCTYPE svg PUBLIC "-//W3C//DTD SVG 1.1//EN" "http://www.w3.org/Graphics/SVG/1.1/DTD/svg11.dtd">
<svg version="1.1" xmlns="http://www.w3.org/2000/svg" xmlns:xlink="http://www.w3.org/1999/xlink" x="0" y="0" width="7.75" height="15" viewBox="0, 0, 7.75, 15">
  <g id="Layer_1">
    <path d="M2.256,15 L5.01,15 L5.01,8.291 L7.148,8.291 L7.5,5.625 L5.01,5.625 L5.01,3.779 C5.01,3.35 5.088,3.037 5.244,2.842 C5.439,2.607 5.801,2.49 6.328,2.49 L7.734,2.49 L7.734,0.117 C7.207,0.039 6.523,0 5.684,0 C4.648,0 3.818,0.308 3.193,0.923 C2.568,1.538 2.256,2.402 2.256,3.516 L2.256,5.625 L0,5.625 L0,8.291 L2.256,8.291 z" fill="#FFFFFF"/>
  </g>
</svg>
