<?xml version="1.0" encoding="UTF-8"?>
<!DOCTYPE svg PUBLIC "-//W3C//DTD SVG 1.1//EN" "http://www.w3.org/Graphics/SVG/1.1/DTD/svg11.dtd">
<svg version="1.1" xmlns="http://www.w3.org/2000/svg" xmlns:xlink="http://www.w3.org/1999/xlink" x="0" y="0" width="19.2" height="15" viewBox="0, 0, 19.2, 15">
  <g id="Layer_1">
    <path d="M11.656,6.625 C11.719,6.979 11.75,7.312 11.75,7.625 C11.75,8.771 11.51,9.786 11.031,10.672 C10.552,11.557 9.875,12.25 9,12.75 C8.125,13.25 7.125,13.5 6,13.5 C4.917,13.5 3.911,13.229 2.984,12.688 C2.057,12.146 1.328,11.417 0.797,10.5 C0.266,9.583 0,8.583 0,7.5 C0,6.417 0.266,5.417 0.797,4.5 C1.328,3.583 2.057,2.854 2.984,2.312 C3.911,1.771 4.917,1.5 6,1.5 C7.562,1.5 8.896,2.021 10,3.062 L8.375,4.625 C7.75,4.021 6.958,3.719 6,3.719 C5.333,3.719 4.714,3.885 4.141,4.219 C3.568,4.552 3.115,5.01 2.781,5.594 C2.448,6.177 2.281,6.812 2.281,7.5 C2.281,8.188 2.448,8.823 2.781,9.406 C3.115,9.99 3.568,10.448 4.141,10.781 C4.714,11.115 5.333,11.281 6,11.281 C6.729,11.281 7.365,11.125 7.906,10.812 C8.344,10.562 8.698,10.208 8.969,9.75 C9.198,9.396 9.344,9.052 9.406,8.719 L6,8.719 L6,6.625 L11.656,6.625 z M17.438,6.844 L19.188,6.844 L19.188,8.594 L17.438,8.594 L17.438,10.344 L15.688,10.344 L15.688,8.594 L13.969,8.594 L13.969,6.844 L15.688,6.844 L15.688,5.094 L17.438,5.094 z" fill="#FFFFFF"/>
  </g>
</svg>
