<?xml version="1.0" encoding="UTF-8"?>
<!DOCTYPE svg PUBLIC "-//W3C//DTD SVG 1.1//EN" "http://www.w3.org/Graphics/SVG/1.1/DTD/svg11.dtd">
<svg version="1.1" xmlns="http://www.w3.org/2000/svg" xmlns:xlink="http://www.w3.org/1999/xlink" x="0" y="0" width="14" height="15" viewBox="0, 0, 14, 15">
  <g id="Layer_1">
    <path d="M3.125,14.5 L3.125,5.156 L0.219,5.156 L0.219,14.5 z M1.688,3.875 C2.146,3.875 2.542,3.708 2.875,3.375 C3.208,3.042 3.375,2.646 3.375,2.188 C3.375,1.729 3.208,1.333 2.875,1 C2.542,0.667 2.146,0.5 1.688,0.5 C1.229,0.5 0.833,0.667 0.5,1 C0.167,1.333 0,1.729 0,2.188 C0,2.646 0.167,3.042 0.5,3.375 C0.833,3.708 1.229,3.875 1.688,3.875 z M14,14.5 L14,9.375 C14,7.938 13.792,6.875 13.375,6.188 C12.833,5.333 11.885,4.906 10.531,4.906 C9.865,4.906 9.281,5.073 8.781,5.406 C8.323,5.677 7.99,6.021 7.781,6.438 L7.75,6.438 L7.75,5.156 L4.969,5.156 L4.969,14.5 L7.844,14.5 L7.844,9.875 C7.844,9.146 7.948,8.594 8.156,8.219 C8.427,7.719 8.896,7.469 9.562,7.469 C10.229,7.469 10.677,7.75 10.906,8.312 C11.031,8.646 11.094,9.188 11.094,9.938 L11.094,14.5 z" fill="#FFFFFF"/>
  </g>
</svg>
