<?xml version="1.0" encoding="UTF-8"?>
<!DOCTYPE svg PUBLIC "-//W3C//DTD SVG 1.1//EN" "http://www.w3.org/Graphics/SVG/1.1/DTD/svg11.dtd">
<svg version="1.1" xmlns="http://www.w3.org/2000/svg" xmlns:xlink="http://www.w3.org/1999/xlink" x="0" y="0" width="11.52" height="15" viewBox="0, 0, 11.52, 15">
  <g id="Layer_1">
    <path d="M6.12,0 C7.06,0.02 7.945,0.235 8.775,0.645 C9.605,1.055 10.26,1.62 10.74,2.34 C11.26,3.12 11.52,3.995 11.52,4.965 C11.52,5.935 11.36,6.85 11.04,7.71 C10.68,8.65 10.17,9.39 9.51,9.93 C8.77,10.53 7.9,10.83 6.9,10.83 C6.5,10.83 6.1,10.735 5.7,10.545 C5.3,10.355 5.01,10.09 4.83,9.75 L4.59,10.71 C4.33,11.75 4.12,12.47 3.96,12.87 C3.72,13.41 3.29,14.1 2.67,14.94 L2.55,15 L2.46,14.91 L2.43,14.46 C2.37,13.9 2.34,13.48 2.34,13.2 C2.34,12.6 2.44,11.82 2.64,10.86 C2.76,10.3 2.96,9.47 3.24,8.37 L3.6,6.93 C3.4,6.55 3.3,6.05 3.3,5.43 C3.3,4.85 3.45,4.37 3.75,3.99 C4.01,3.67 4.33,3.47 4.71,3.39 C5.09,3.31 5.42,3.38 5.7,3.6 C5.98,3.82 6.12,4.17 6.12,4.65 C6.12,4.91 6.08,5.2 6,5.52 C5.96,5.7 5.87,5.98 5.73,6.36 C5.59,6.74 5.5,7.02 5.46,7.2 C5.38,7.52 5.34,7.8 5.34,8.04 C5.34,8.42 5.475,8.735 5.745,8.985 C6.015,9.235 6.34,9.36 6.72,9.36 C7.36,9.36 7.9,9.08 8.34,8.52 C8.72,8.06 9,7.44 9.18,6.66 C9.34,6.02 9.42,5.39 9.42,4.77 C9.42,3.73 9.095,2.92 8.445,2.34 C7.795,1.76 6.94,1.47 5.88,1.47 C5.1,1.47 4.385,1.65 3.735,2.01 C3.085,2.37 2.58,2.86 2.22,3.48 C1.86,4.1 1.68,4.81 1.68,5.61 C1.68,5.95 1.74,6.28 1.86,6.6 C1.92,6.78 2.03,7 2.19,7.26 C2.31,7.46 2.37,7.59 2.37,7.65 C2.37,7.81 2.33,8.01 2.25,8.25 C2.15,8.55 2.04,8.7 1.92,8.7 C1.66,8.7 1.38,8.565 1.08,8.295 C0.78,8.025 0.53,7.66 0.33,7.2 C0.11,6.66 0,6.06 0,5.4 C0,4.32 0.3,3.36 0.9,2.52 C1.46,1.74 2.21,1.125 3.15,0.675 C4.09,0.225 5.08,0 6.12,0 z" fill="#FFFFFF"/>
  </g>
</svg>
