<?xml version="1.0" encoding="UTF-8"?>
<!DOCTYPE svg PUBLIC "-//W3C//DTD SVG 1.1//EN" "http://www.w3.org/Graphics/SVG/1.1/DTD/svg11.dtd">
<svg version="1.1" xmlns="http://www.w3.org/2000/svg" xmlns:xlink="http://www.w3.org/1999/xlink" x="0" y="0" width="16" height="15" viewBox="0, 0, 16, 15">
  <g id="Layer_1">
    <path d="M14.344,4.25 C14.99,3.771 15.542,3.198 16,2.531 C15.375,2.802 14.75,2.979 14.125,3.062 C14.833,2.625 15.312,2.021 15.562,1.25 C14.917,1.625 14.219,1.885 13.469,2.031 C13.156,1.719 12.797,1.469 12.391,1.281 C11.984,1.094 11.542,1 11.062,1 C10.479,1 9.938,1.146 9.438,1.438 C8.938,1.729 8.542,2.13 8.25,2.641 C7.958,3.151 7.812,3.698 7.812,4.281 C7.812,4.531 7.833,4.781 7.875,5.031 C6.542,4.969 5.286,4.635 4.109,4.031 C2.932,3.427 1.938,2.615 1.125,1.594 C0.812,2.115 0.656,2.661 0.656,3.234 C0.656,3.807 0.792,4.333 1.062,4.812 C1.333,5.292 1.688,5.688 2.125,6 C1.604,5.979 1.115,5.833 0.656,5.562 L0.656,5.625 C0.656,6.396 0.906,7.083 1.406,7.688 C1.906,8.292 2.531,8.677 3.281,8.844 C2.99,8.906 2.698,8.938 2.406,8.938 C2.219,8.938 2.021,8.927 1.812,8.906 C2.021,9.552 2.401,10.089 2.953,10.516 C3.505,10.943 4.146,11.156 4.875,11.156 C3.667,12.094 2.302,12.562 0.781,12.562 C0.49,12.562 0.229,12.552 0,12.531 C1.521,13.51 3.198,14 5.031,14 C6.948,14 8.646,13.51 10.125,12.531 C11.479,11.656 12.531,10.479 13.281,9 C14.01,7.604 14.375,6.156 14.375,4.656 C14.375,4.469 14.365,4.333 14.344,4.25 z" fill="#FFFFFF"/>
  </g>
</svg>
